<?xml version="1.0" encoding="utf-8"?>
<!-- Generator: Adobe Illustrator 23.1.0, SVG Export Plug-In . SVG Version: 6.00 Build 0)  -->
<svg version="1.1" id="Layer_1" xmlns="http://www.w3.org/2000/svg" xmlns:xlink="http://www.w3.org/1999/xlink" x="0px" y="0px"
	 viewBox="0 0 68 68" style="enable-background:new 0 0 68 68;" xml:space="preserve">
<style type="text/css">
	.st0{fill:#FFFFFF;}
</style>
<path class="st0" d="M-0.2,67.6c2.1-0.6,4.3-1,5.7-2.3c6-7.3,9.1-19.8,11.3-31.4c0.9-4.8,0.7-3.6,1.8-8.9c0.8-3.9,1.2-16.7,7.5-16.7
	c5,0,6.8,9.9,7.9,13.6c2.1,7.5,2.4,8.3,4.3,15.8c0.8,3.1,2.1,7.8,3.8,10.1c0.5,0.7,1.6,1.6,2.4,1.9c1.5,0.5,3.3-0.1,4.8,0.3
	c2.6,0.6,4.2,3.7,5.6,6.2c1.3,2.4,2.9,5.4,4.5,7.3c2,2.4,4.1,3.8,8.5,3.9C45.5,67.7,22.5,67.5-0.2,67.6z"/>
</svg>
